#N canvas 827 239 527 327 12;
#X obj 189 548 output~;
#X obj 384 425 +~;
#X obj 244 352 +~;
#X obj 448 327 +~;
#X obj 448 138 osc~ 587;
#X obj 547 132 osc~ 587.25;
#X obj 315 394 +~;
#X obj 366 346 +~;
#X obj 22 285 *~ 0.4;
#X obj 115 256 *~ 0.3;
#X obj 448 216 *~ 0.45;
#X obj 547 251 *~ 0.67;
#X obj 224 216 bl.tri~ 440;
#X obj 346 233 bl.tri~ 440.33;
#X obj 37 -53 notein;
#X floatatom 22 28 5 0 0 0 - - - 12;
#X floatatom 168 28 5 0 0 0 - - - 12;
#X text 117 27 velocity;
#X obj 23 -18 mono -high;
#X text -50 27 MIDI note;
#X obj 22 62 mtof;
#X floatatom 22 94 5 0 0 0 - - - 12;
#X obj 111 371 adsr~ 1 250 0.5 500;
#X obj 168 62 /~ 127;
#X obj 120 513 *~ 1;
#X text 204 475 VCA;
#X obj 159 452 *~;
#X obj 670 0 phasor~ 5;
#X obj 547 -25 phasor~ 7;
#X obj 547 0 samphold~;
#X floatatom 547 -55 5 0 0 0 - - - 0;
#X floatatom 670 -55 5 0 0 0 - - - 0;
#X obj 639 63 tabwrite~ samphold;
#X obj 547 45 *~ 48;
#X obj 547 70 +~ 36;
#X msg 730 -30 0;
#X msg 713 -137 32 96.33;
#X msg 547 -137 5 7;
#X msg 472 -137 1 5;
#X msg 506 -137 2 11;
#X msg 582 -137 3.7 8.8;
#X msg 647 -137 3.4 8.9;
#X text 759 -30 <= reset phase;
#X obj 547 -85 unpack float float;
#X obj 639 34 bng 19 250 50 0 empty empty empty 17 7 0 10 #dfdfdf #000000 #000000;
#X text 665 33 <-- graph output;
#X obj 547 100 mtof~;
#X obj 22 183 osc~ 220;
#X obj 120 191 osc~ 220.33;
#X text -56 182 Frequency;
#X text -50 284 Amplitude;
#X text 22 -76 MIDI Trigger;
#X text 565 -169 Sample Hold Patch;
#X obj 224 251 *~ 0.8;
#X obj 346 276 *~ 0.8;
#X connect 1 0 26 0;
#X connect 2 0 6 1;
#X connect 3 0 1 1;
#X connect 4 0 10 0;
#X connect 5 0 11 0;
#X connect 6 0 1 0;
#X connect 7 0 6 0;
#X connect 8 0 7 0;
#X connect 9 0 7 1;
#X connect 10 0 3 0;
#X connect 11 0 3 1;
#X connect 12 0 53 0;
#X connect 13 0 54 0;
#X connect 14 0 18 0;
#X connect 14 1 18 1;
#X connect 15 0 20 0;
#X connect 16 0 23 0;
#X connect 18 0 15 0;
#X connect 18 1 16 0;
#X connect 20 0 21 0;
#X connect 21 0 12 0;
#X connect 21 0 13 0;
#X connect 21 0 4 0;
#X connect 21 0 47 0;
#X connect 21 0 48 0;
#X connect 22 0 26 1;
#X connect 23 0 22 0;
#X connect 24 0 0 0;
#X connect 26 0 24 0;
#X connect 27 0 29 1;
#X connect 28 0 29 0;
#X connect 29 0 33 0;
#X connect 29 0 32 0;
#X connect 30 0 28 0;
#X connect 31 0 27 0;
#X connect 33 0 34 0;
#X connect 34 0 46 0;
#X connect 35 0 27 1;
#X connect 35 0 28 1;
#X connect 36 0 43 0;
#X connect 37 0 43 0;
#X connect 38 0 43 0;
#X connect 39 0 43 0;
#X connect 40 0 43 0;
#X connect 41 0 43 0;
#X connect 43 0 30 0;
#X connect 43 1 31 0;
#X connect 44 0 32 0;
#X connect 46 0 5 0;
#X connect 47 0 8 0;
#X connect 48 0 9 0;
#X connect 53 0 2 0;
#X connect 53 0 2 1;
#X connect 54 0 2 1;
